<mxfile host="app.diagrams.net" modified="2024-04-17T22:21:07.594Z" agent="Mozilla/5.0 (Windows NT 10.0; Win64; x64) AppleWebKit/537.36 (KHTML, like Gecko) Chrome/123.0.0.0 Safari/537.36" etag="vy8h6oSqP1-RVEZ4-Phv" version="24.2.5" type="github">
  <diagram name="Página-1" id="rX_OChB66uoMsaLpp6ug">
    <mxGraphModel dx="1434" dy="772" grid="1" gridSize="10" guides="1" tooltips="1" connect="1" arrows="1" fold="1" page="1" pageScale="1" pageWidth="827" pageHeight="1169" math="0" shadow="0">
      <root>
        <mxCell id="0" />
        <mxCell id="1" parent="0" />
        <mxCell id="JcpWMlzMwsbFCnnu0zB2-1" value="Usuário&lt;div&gt;&lt;br&gt;&lt;/div&gt;" style="shape=umlActor;verticalLabelPosition=bottom;verticalAlign=top;html=1;outlineConnect=0;" vertex="1" parent="1">
          <mxGeometry x="60" y="140" width="30" height="60" as="geometry" />
        </mxCell>
        <mxCell id="JcpWMlzMwsbFCnnu0zB2-2" value="Funcionário" style="shape=umlActor;verticalLabelPosition=bottom;verticalAlign=top;html=1;outlineConnect=0;" vertex="1" parent="1">
          <mxGeometry x="680" y="260" width="30" height="60" as="geometry" />
        </mxCell>
        <mxCell id="JcpWMlzMwsbFCnnu0zB2-6" value="Manter Usuário" style="ellipse;whiteSpace=wrap;html=1;" vertex="1" parent="1">
          <mxGeometry x="460" y="140" width="120" height="80" as="geometry" />
        </mxCell>
        <mxCell id="JcpWMlzMwsbFCnnu0zB2-7" value="Manter Livro" style="ellipse;whiteSpace=wrap;html=1;" vertex="1" parent="1">
          <mxGeometry x="470" y="270" width="120" height="80" as="geometry" />
        </mxCell>
        <mxCell id="JcpWMlzMwsbFCnnu0zB2-16" style="edgeStyle=orthogonalEdgeStyle;rounded=0;orthogonalLoop=1;jettySize=auto;html=1;endArrow=none;endFill=0;" edge="1" parent="1" source="JcpWMlzMwsbFCnnu0zB2-8" target="JcpWMlzMwsbFCnnu0zB2-1">
          <mxGeometry relative="1" as="geometry" />
        </mxCell>
        <mxCell id="JcpWMlzMwsbFCnnu0zB2-8" value="Consultar Livros" style="ellipse;whiteSpace=wrap;html=1;" vertex="1" parent="1">
          <mxGeometry x="150" y="320" width="120" height="80" as="geometry" />
        </mxCell>
        <mxCell id="JcpWMlzMwsbFCnnu0zB2-19" style="rounded=0;orthogonalLoop=1;jettySize=auto;html=1;endArrow=open;endFill=0;dashed=1;dashPattern=8 8;" edge="1" parent="1" source="JcpWMlzMwsbFCnnu0zB2-9" target="JcpWMlzMwsbFCnnu0zB2-8">
          <mxGeometry relative="1" as="geometry" />
        </mxCell>
        <mxCell id="JcpWMlzMwsbFCnnu0zB2-20" value="&amp;lt;&amp;lt;extends&amp;gt;&amp;gt;" style="edgeLabel;html=1;align=center;verticalAlign=middle;resizable=0;points=[];" vertex="1" connectable="0" parent="JcpWMlzMwsbFCnnu0zB2-19">
          <mxGeometry x="-0.2431" y="-1" relative="1" as="geometry">
            <mxPoint as="offset" />
          </mxGeometry>
        </mxCell>
        <mxCell id="JcpWMlzMwsbFCnnu0zB2-9" value="Visualizar Detalhes do Livro" style="ellipse;whiteSpace=wrap;html=1;" vertex="1" parent="1">
          <mxGeometry x="90" y="510" width="120" height="80" as="geometry" />
        </mxCell>
        <mxCell id="JcpWMlzMwsbFCnnu0zB2-10" value="Manter Categoria" style="ellipse;whiteSpace=wrap;html=1;" vertex="1" parent="1">
          <mxGeometry x="620" y="420" width="120" height="80" as="geometry" />
        </mxCell>
        <mxCell id="JcpWMlzMwsbFCnnu0zB2-11" value="Realizar Reserva" style="ellipse;whiteSpace=wrap;html=1;" vertex="1" parent="1">
          <mxGeometry x="370" y="480" width="120" height="80" as="geometry" />
        </mxCell>
        <mxCell id="JcpWMlzMwsbFCnnu0zB2-12" value="Realizar Devolução" style="ellipse;whiteSpace=wrap;html=1;" vertex="1" parent="1">
          <mxGeometry x="330" y="630" width="120" height="80" as="geometry" />
        </mxCell>
        <mxCell id="JcpWMlzMwsbFCnnu0zB2-13" style="rounded=0;orthogonalLoop=1;jettySize=auto;html=1;entryX=0.992;entryY=0.7;entryDx=0;entryDy=0;entryPerimeter=0;endArrow=none;endFill=0;" edge="1" parent="1" source="JcpWMlzMwsbFCnnu0zB2-2" target="JcpWMlzMwsbFCnnu0zB2-6">
          <mxGeometry relative="1" as="geometry" />
        </mxCell>
        <mxCell id="JcpWMlzMwsbFCnnu0zB2-14" style="rounded=0;orthogonalLoop=1;jettySize=auto;html=1;entryX=0.95;entryY=0.8;entryDx=0;entryDy=0;entryPerimeter=0;endArrow=none;endFill=0;" edge="1" parent="1" source="JcpWMlzMwsbFCnnu0zB2-2" target="JcpWMlzMwsbFCnnu0zB2-7">
          <mxGeometry relative="1" as="geometry" />
        </mxCell>
        <mxCell id="JcpWMlzMwsbFCnnu0zB2-15" style="rounded=0;orthogonalLoop=1;jettySize=auto;html=1;entryX=0.008;entryY=0.338;entryDx=0;entryDy=0;entryPerimeter=0;" edge="1" parent="1" source="JcpWMlzMwsbFCnnu0zB2-1" target="JcpWMlzMwsbFCnnu0zB2-6">
          <mxGeometry relative="1" as="geometry" />
        </mxCell>
        <mxCell id="JcpWMlzMwsbFCnnu0zB2-18" style="rounded=0;orthogonalLoop=1;jettySize=auto;html=1;entryX=0.258;entryY=0.088;entryDx=0;entryDy=0;entryPerimeter=0;endArrow=none;endFill=0;" edge="1" parent="1" source="JcpWMlzMwsbFCnnu0zB2-2" target="JcpWMlzMwsbFCnnu0zB2-10">
          <mxGeometry relative="1" as="geometry" />
        </mxCell>
      </root>
    </mxGraphModel>
  </diagram>
</mxfile>
